<?xml version="1.0" standalone="no"?>
<!DOCTYPE svg PUBLIC "-//W3C//DTD SVG 20010904//EN"
 "http://www.w3.org/TR/2001/REC-SVG-20010904/DTD/svg10.dtd">
<svg version="1.0" xmlns="http://www.w3.org/2000/svg"
 width="960.000000pt" height="540.000000pt" viewBox="0 0 960.000000 540.000000"
 preserveAspectRatio="xMidYMid meet">

<g transform="translate(0.000000,540.000000) scale(0.100000,-0.100000)"
fill="#000000" stroke="none">
<path d="M8225 4904 c-55 -10 -60 -12 -23 -10 35 3 48 -1 53 -12 5 -14 22 -8
18 6 -1 4 8 12 20 19 26 15 22 14 -68 -3z"/>
<path d="M8010 4870 c0 -11 5 -20 10 -20 6 0 10 6 10 14 0 8 6 17 13 19 6 3 2
6 -10 6 -17 1 -23 -5 -23 -19z"/>
<path d="M7948 4873 c12 -2 30 -2 40 0 9 3 -1 5 -23 4 -22 0 -30 -2 -17 -4z"/>
<path d="M8068 4808 c9 -9 15 -9 24 0 9 9 7 12 -12 12 -19 0 -21 -3 -12 -12z"/>
<path d="M3166 4429 c4 -6 12 -32 19 -58 8 -27 14 -37 14 -23 1 24 -24 92 -34
92 -3 0 -3 -5 1 -11z"/>
<path d="M6476 4362 c-2 -4 21 -8 52 -8 38 -1 50 2 37 7 -26 10 -83 11 -89 1z"/>
<path d="M6218 4299 l-33 -31 34 23 c18 12 47 25 65 29 l31 8 -32 1 c-24 1
-42 -8 -65 -30z"/>
<path d="M3350 4240 c-11 -7 -7 -9 15 -5 17 3 54 0 83 -8 28 -8 52 -11 52 -6
0 8 -87 29 -118 29 -9 0 -24 -5 -32 -10z"/>
<path d="M1576 4114 c-11 -28 -7 -542 4 -549 22 -14 40 17 40 69 0 47 3 53 31
70 17 10 34 14 38 10 4 -5 29 -37 55 -71 30 -39 53 -60 62 -56 25 9 15 40 -31
94 -25 29 -45 57 -45 62 0 5 19 26 43 47 33 30 39 41 30 51 -10 10 -29 2 -93
-39 -45 -29 -83 -52 -86 -52 -2 0 -4 55 -4 123 0 162 -9 257 -25 257 -7 0 -16
-7 -19 -16z"/>
<path d="M1164 4064 c-66 -24 -95 -61 -101 -131 -4 -47 -2 -66 12 -87 20 -29
84 -66 153 -87 41 -12 112 -75 112 -100 0 -22 -22 -49 -52 -65 -35 -18 -133
-23 -180 -9 -25 7 -28 5 -28 -18 0 -47 97 -59 212 -25 54 16 80 48 86 106 4
46 2 52 -32 90 -28 31 -58 48 -119 72 -45 17 -92 41 -104 52 -27 25 -30 66 -8
107 18 36 98 71 160 71 39 0 46 3 43 18 -4 23 -97 27 -154 6z"/>
<path d="M4382 4067 c-6 -7 -23 -14 -39 -15 -40 -3 -125 -47 -154 -79 -17 -20
-18 -23 -3 -10 33 28 37 20 7 -18 -17 -21 -30 -30 -34 -23 -10 16 -54 -59 -79
-132 -31 -93 -48 -231 -43 -355 5 -126 10 -158 23 -150 6 3 10 0 10 -7 1 -7 7
-26 15 -43 12 -25 14 -26 9 -5 l-6 25 28 -28 c32 -31 100 -65 88 -44 -4 7 -16
22 -27 34 -11 13 -18 25 -15 28 3 3 17 -10 32 -30 17 -22 35 -35 50 -35 34 0
39 11 15 36 l-21 22 23 12 c19 11 21 10 16 -4 -4 -10 -3 -15 3 -11 19 12 10
31 -29 61 -22 16 -46 40 -54 54 -23 39 -37 123 -37 219 0 86 0 87 35 121 36
35 48 32 18 -4 -15 -18 -14 -18 8 2 14 12 29 19 34 15 4 -5 5 -2 1 5 -4 6 -3
12 2 12 5 0 24 21 42 48 33 50 33 30 -1 -42 -10 -22 -17 -41 -15 -44 5 -4 56
69 56 80 0 4 5 19 12 35 l11 28 7 -30 c7 -28 8 -26 10 15 2 42 3 43 9 15 9
-35 55 -118 76 -135 20 -16 19 -11 -5 41 -29 66 -24 79 11 26 17 -26 27 -52
24 -58 -6 -8 -2 -8 13 0 15 8 23 7 32 -4 24 -29 29 -14 8 23 l-22 37 42 -40
c47 -45 61 -76 88 -189 l18 -78 -31 -27 c-17 -14 -38 -39 -46 -56 -8 -16 -27
-41 -41 -54 -28 -26 -34 -51 -13 -51 8 0 22 -9 32 -20 10 -11 13 -20 7 -20 -7
0 -12 -7 -12 -16 0 -12 6 -9 21 10 11 14 25 24 30 21 5 -4 9 4 10 17 1 21 2
20 14 -7 11 -24 14 -26 15 -10 1 18 2 17 15 -5 16 -30 19 -24 35 77 11 71 31
115 46 101 4 -5 2 -46 -5 -93 -8 -48 -11 -88 -8 -91 3 -3 24 34 46 82 39 82
54 103 74 104 12 0 8 -29 -8 -60 -8 -16 -12 -35 -9 -43 4 -12 9 -11 27 7 26
25 33 78 17 137 -6 23 -9 43 -6 46 7 7 24 -36 42 -102 l14 -50 -5 52 c-6 57
-43 150 -124 312 -29 57 -51 105 -49 107 5 5 67 -70 103 -123 30 -46 43 -57
24 -20 -26 49 -90 136 -157 213 -39 45 -68 85 -64 89 4 5 1 5 -6 1 -8 -5 -22
0 -35 12 -43 40 -134 74 -188 70 -36 -2 -48 0 -44 10 6 16 0 15 -13 -1z m-190
-159 c-7 -7 -12 -8 -12 -2 0 6 3 14 7 17 3 4 9 5 12 2 2 -3 -1 -11 -7 -17z
m376 -24 c-4 -3 -12 5 -18 18 -12 22 -12 22 6 6 10 -10 15 -20 12 -24z m-48
-164 c0 -5 -2 -10 -4 -10 -3 0 -8 5 -11 10 -3 6 -1 10 4 10 6 0 11 -4 11 -10z"/>
<path d="M1976 3974 c-9 -22 11 -54 35 -54 25 0 34 22 19 49 -13 25 -45 28
-54 5z"/>
<path d="M2186 3832 c-2 -4 -6 -116 -7 -250 -2 -179 0 -245 9 -254 22 -22 31
5 34 102 l3 95 51 6 c122 15 164 49 164 131 0 27 -7 62 -15 78 -22 43 -78 81
-127 86 -24 3 -58 7 -75 9 -18 2 -35 1 -37 -3z m154 -64 c36 -19 47 -30 54
-59 19 -78 -21 -120 -118 -123 l-51 -1 -3 94 c-2 69 1 97 10 103 23 14 62 9
108 -14z"/>
<path d="M1984 3784 c-9 -35 2 -174 14 -186 21 -21 32 5 32 70 0 91 -10 142
-26 142 -8 0 -17 -12 -20 -26z"/>
<path d="M4381 3744 c0 -11 3 -14 6 -6 3 7 2 16 -1 19 -3 4 -6 -2 -5 -13z"/>
<path d="M6525 3740 c-15 -25 14 -90 41 -90 10 0 12 9 8 33 -8 38 -38 75 -49
57z"/>
<path d="M6626 3645 c4 -8 8 -15 10 -15 2 0 4 7 4 15 0 8 -4 15 -10 15 -5 0
-7 -7 -4 -15z"/>
<path d="M4255 3635 c63 -18 66 -18 35 0 -14 8 -38 14 -55 14 -24 0 -20 -3 20
-14z"/>
<path d="M4504 3640 c-12 -5 -26 -15 -30 -22 -6 -11 -5 -11 8 0 9 7 35 17 59
21 35 7 38 9 14 9 -16 1 -40 -3 -51 -8z"/>
<path d="M6660 3640 c8 -5 20 -10 25 -10 6 0 3 5 -5 10 -8 5 -19 10 -25 10 -5
0 -3 -5 5 -10z"/>
<path d="M6534 3625 c-3 -8 -4 -20 -2 -27 3 -7 7 -1 10 15 6 29 1 36 -8 12z"/>
<path d="M6330 3601 c-5 -11 -10 -23 -10 -28 1 -4 7 3 14 16 l13 23 22 -35
c11 -19 29 -41 38 -48 9 -8 -1 10 -21 39 -21 28 -40 52 -42 52 -2 0 -8 -9 -14
-19z"/>
<path d="M4250 3589 c0 -5 5 -7 10 -4 6 3 10 8 10 11 0 2 -4 4 -10 4 -5 0 -10
-5 -10 -11z"/>
<path d="M4520 3590 c0 -5 5 -10 10 -10 6 0 10 5 10 10 0 6 -4 10 -10 10 -5 0
-10 -4 -10 -10z"/>
<path d="M6556 3585 c-9 -26 -7 -32 5 -12 6 10 9 21 6 23 -2 3 -7 -2 -11 -11z"/>
<path d="M6068 3537 c29 -29 49 -57 45 -62 -5 -4 -2 -5 5 0 10 5 0 21 -39 61
-29 30 -56 54 -58 54 -3 0 18 -24 47 -53z"/>
<path d="M6475 3570 c-12 -4 -27 -16 -35 -26 -13 -17 -13 -18 0 -8 8 6 28 16
45 21 16 5 25 12 20 15 -6 3 -19 2 -30 -2z"/>
<path d="M6339 3541 c13 -12 28 -21 34 -21 12 0 11 0 -28 24 l-30 17 24 -20z"/>
<path d="M6391 3505 c0 -11 21 -43 47 -72 l47 -52 12 25 c10 21 8 27 -14 44
-25 19 -31 22 -63 24 -8 1 -17 12 -21 26 -6 20 -7 21 -8 5z"/>
<path d="M6861 3494 c0 -11 3 -14 6 -6 3 7 2 16 -1 19 -3 4 -6 -2 -5 -13z"/>
<path d="M6542 3470 c0 -19 2 -27 5 -17 2 9 2 25 0 35 -3 9 -5 1 -5 -18z"/>
<path d="M6871 3444 c0 -11 3 -14 6 -6 3 7 2 16 -1 19 -3 4 -6 -2 -5 -13z"/>
<path d="M6260 3431 c0 -6 4 -13 10 -16 6 -3 7 1 4 9 -7 18 -14 21 -14 7z"/>
<path d="M1677 3390 c-31 -25 -43 -77 -29 -120 9 -25 8 -32 -7 -42 -50 -37
-64 -97 -35 -148 36 -60 116 -77 189 -40 35 18 40 18 55 5 16 -15 50 -11 50 5
0 4 -10 14 -22 22 -20 13 -21 18 -9 31 19 24 31 88 20 108 -14 28 -39 12 -39
-25 0 -18 -7 -41 -15 -52 -15 -18 -17 -17 -65 34 -28 29 -50 56 -50 60 0 4 17
16 37 27 21 11 44 32 51 48 36 75 -63 140 -131 87z m81 -22 c22 -22 13 -56
-20 -82 -18 -13 -36 -22 -40 -20 -4 3 -8 23 -8 44 0 56 38 88 68 58z m32 -288
c0 -14 -69 -32 -96 -26 -23 6 -64 58 -64 81 0 6 9 25 21 44 l20 33 60 -62 c32
-34 59 -66 59 -70z"/>
<path d="M6581 3314 c0 -11 3 -14 6 -6 3 7 2 16 -1 19 -3 4 -6 -2 -5 -13z"/>
<path d="M6471 3304 c0 -11 3 -14 6 -6 3 7 2 16 -1 19 -3 4 -6 -2 -5 -13z"/>
<path d="M4821 3283 c-1 -6 -4 -20 -7 -30 -5 -17 -5 -17 6 0 6 10 9 23 6 30
-3 9 -5 9 -5 0z"/>
<path d="M6592 3270 c0 -14 2 -19 5 -12 2 6 2 18 0 25 -3 6 -5 1 -5 -13z"/>
<path d="M6601 3224 c0 -11 3 -14 6 -6 3 7 2 16 -1 19 -3 4 -6 -2 -5 -13z"/>
<path d="M4623 3192 c15 -16 25 -30 23 -33 -3 -3 4 -5 14 -5 17 0 15 5 -13 33
-39 40 -62 44 -24 5z"/>
<path d="M6612 3170 c0 -14 2 -19 5 -12 2 6 2 18 0 25 -3 6 -5 1 -5 -13z"/>
<path d="M4581 3175 c1 -19 18 -51 18 -35 0 8 -4 22 -9 30 -5 8 -9 11 -9 5z"/>
<path d="M5682 3150 c0 -19 2 -27 5 -17 2 9 2 25 0 35 -3 9 -5 1 -5 -18z"/>
<path d="M4205 3150 c-10 -11 -16 -22 -14 -24 2 -2 12 7 22 20 22 29 17 32 -8
4z"/>
<path d="M5892 3140 c0 -14 2 -19 5 -12 2 6 2 18 0 25 -3 6 -5 1 -5 -13z"/>
<path d="M6621 3114 c0 -11 3 -14 6 -6 3 7 2 16 -1 19 -3 4 -6 -2 -5 -13z"/>
<path d="M3925 3080 c10 -11 20 -20 23 -20 3 0 -3 9 -13 20 -10 11 -20 20 -23
20 -3 0 3 -9 13 -20z"/>
<path d="M6490 3091 c0 -6 4 -13 10 -16 6 -3 7 1 4 9 -7 18 -14 21 -14 7z"/>
<path d="M6628 3043 c6 -65 10 -70 11 -15 0 28 -3 52 -7 52 -4 0 -6 -17 -4
-37z"/>
<path d="M6540 3010 c6 -11 13 -20 16 -20 2 0 0 9 -6 20 -6 11 -13 20 -16 20
-2 0 0 -9 6 -20z"/>
<path d="M6801 2984 c0 -11 3 -14 6 -6 3 7 2 16 -1 19 -3 4 -6 -2 -5 -13z"/>
<path d="M1972 2965 c-21 -26 -30 -66 -35 -155 l-2 -45 -52 -9 c-41 -8 -53
-14 -53 -28 0 -15 9 -18 60 -18 33 0 60 -1 60 -2 1 -33 41 -233 49 -241 5 -5
17 -7 26 -3 13 5 16 13 11 34 -16 67 -39 213 -35 217 3 2 36 6 74 7 67 3 70 4
70 28 0 25 -1 25 -80 25 l-80 0 -3 42 c-2 23 2 60 8 82 13 51 44 62 108 39 38
-14 44 -14 49 -1 11 27 -24 47 -90 51 -60 4 -65 2 -85 -23z"/>
<path d="M4359 2973 c-13 -16 -12 -17 4 -4 16 13 21 21 13 21 -2 0 -10 -8 -17
-17z"/>
<path d="M5866 2975 c-9 -26 -7 -32 5 -12 6 10 9 21 6 23 -2 3 -7 -2 -11 -11z"/>
<path d="M813 2963 c-11 -24 -10 -426 0 -486 l8 -48 142 3 c139 3 142 4 145
26 3 22 2 22 -122 22 -69 0 -127 1 -128 3 -1 1 -4 112 -7 246 -5 182 -9 245
-18 249 -7 2 -16 -5 -20 -15z"/>
<path d="M6590 2920 c6 -11 13 -20 16 -20 2 0 0 9 -6 20 -6 11 -13 20 -16 20
-2 0 0 -9 6 -20z"/>
<path d="M6636 2914 c-4 -14 -5 -28 -3 -31 3 -2 8 8 11 23 4 14 5 28 3 31 -3
2 -8 -8 -11 -23z"/>
<path d="M4861 2926 c2 -2 15 -9 29 -15 24 -11 24 -11 6 3 -16 13 -49 24 -35
12z"/>
<path d="M3885 2890 c-16 -7 -17 -9 -3 -9 9 -1 20 4 23 9 7 11 7 11 -20 0z"/>
<path d="M5812 2855 c-17 -34 -19 -50 -11 -67 l10 -23 -5 24 c-3 13 4 42 15
63 11 22 19 42 17 44 -3 2 -14 -16 -26 -41z"/>
<path d="M6610 2881 c0 -6 4 -13 10 -16 6 -3 7 1 4 9 -7 18 -14 21 -14 7z"/>
<path d="M4360 2873 c0 -7 5 -15 10 -18 6 -3 11 -16 11 -28 1 -17 2 -18 6 -5
2 10 -3 28 -11 40 -9 12 -16 17 -16 11z"/>
<path d="M4423 2846 c9 -7 17 -19 18 -27 0 -8 4 -5 8 6 11 26 5 35 -22 35 -20
-1 -21 -2 -4 -14z"/>
<path d="M6840 2795 c0 -32 2 -56 5 -53 7 7 9 97 2 105 -4 3 -7 -20 -7 -52z"/>
<path d="M6340 2790 c6 -11 13 -20 16 -20 2 0 0 9 -6 20 -6 11 -13 20 -16 20
-2 0 0 -9 6 -20z"/>
<path d="M5180 2770 c12 -17 23 -30 25 -30 9 0 -22 50 -33 55 -7 3 -4 -8 8
-25z"/>
<path d="M5215 2770 c10 -11 20 -20 23 -20 3 0 -3 9 -13 20 -10 11 -20 20 -23
20 -3 0 3 -9 13 -20z"/>
<path d="M6860 2785 c0 -5 5 -17 10 -25 5 -8 10 -10 10 -5 0 6 -5 17 -10 25
-5 8 -10 11 -10 5z"/>
<path d="M4756 2748 c-3 -13 -5 -32 -5 -43 1 -11 5 -2 10 19 10 42 6 62 -5 24z"/>
<path d="M2304 2753 c-40 -8 -76 -58 -82 -111 -9 -99 37 -168 112 -166 52 1
100 23 104 48 3 16 0 18 -25 11 -15 -4 -46 -9 -68 -12 -45 -5 -71 13 -77 57
-3 24 0 25 77 35 l80 10 -2 45 c-3 70 -44 98 -119 83z m57 -43 c26 -15 24 -46
-3 -54 -41 -11 -88 -7 -88 7 0 19 35 48 68 56 2 1 12 -4 23 -9z"/>
<path d="M4806 2742 c2 -2 -2 -14 -8 -26 -10 -20 -10 -20 8 -4 12 12 15 21 8
27 -6 5 -9 6 -8 3z"/>
<path d="M6381 2730 c14 -31 19 -36 19 -24 0 6 -7 19 -16 30 -14 18 -14 18 -3
-6z"/>
<path d="M6941 2734 c0 -11 3 -14 6 -6 3 7 2 16 -1 19 -3 4 -6 -2 -5 -13z"/>
<path d="M2585 2709 c-9 -14 2 -111 21 -176 11 -41 19 -53 34 -53 17 0 20 7
20 54 0 45 5 60 27 86 25 30 30 32 75 27 39 -5 50 -3 55 10 17 43 -96 60 -149
22 -16 -12 -30 -20 -32 -18 -1 2 -7 16 -14 32 -12 28 -26 34 -37 16z"/>
<path d="M6891 2715 c0 -5 6 -21 14 -35 8 -14 14 -20 14 -15 0 6 -6 21 -14 35
-8 14 -14 21 -14 15z"/>
<path d="M3946 2679 c-3 -17 -6 -46 -6 -64 0 -19 -6 -36 -12 -38 -13 -5 -8 -7
18 -7 4 0 8 31 10 70 3 75 0 88 -10 39z"/>
<path d="M1245 2676 c-84 -37 -97 -159 -24 -221 34 -28 47 -30 103 -14 54 15
96 59 96 99 0 47 -28 98 -69 126 -40 27 -62 29 -106 10z m96 -67 c55 -59 28
-119 -53 -119 -67 0 -92 74 -42 124 35 34 60 33 95 -5z"/>
<path d="M6402 2680 c0 -8 4 -26 8 -40 6 -20 8 -21 8 -5 0 11 -3 29 -8 40 -5
12 -8 14 -8 5z"/>
<path d="M1603 2660 c-52 -23 -83 -70 -83 -126 0 -71 56 -104 153 -91 31 4 49
14 68 36 14 17 30 31 35 31 5 0 22 -14 37 -31 22 -25 30 -29 42 -19 18 15 11
33 -37 93 -21 27 -38 55 -38 62 0 7 -14 25 -31 39 -37 32 -86 34 -146 6z m111
-36 c32 -12 9 -113 -29 -128 -32 -12 -83 -6 -106 13 -21 17 -22 20 -9 51 22
53 92 84 144 64z"/>
<path d="M3835 2650 c-3 -5 -3 -14 0 -20 8 -13 35 -13 35 0 0 5 -8 6 -17 3
-12 -5 -15 -2 -10 10 7 19 2 23 -8 7z"/>
<path d="M3895 2640 c4 -6 1 -19 -7 -28 -12 -15 -11 -16 5 -3 19 15 23 41 6
41 -5 0 -7 -5 -4 -10z"/>
<path d="M4765 2640 c-8 -12 12 -40 28 -40 6 0 3 6 -8 13 -10 8 -15 19 -11 25
4 7 5 12 2 12 -3 0 -8 -5 -11 -10z"/>
<path d="M3771 2616 c-8 -10 -9 -16 -1 -21 6 -4 9 -1 8 7 -2 7 5 12 14 12 10
-1 15 2 12 7 -8 13 -20 11 -33 -5z"/>
<path d="M4180 2615 c0 -5 5 -17 10 -25 5 -8 10 -10 10 -5 0 6 -5 17 -10 25
-5 8 -10 11 -10 5z"/>
<path d="M6417 2590 c-3 -11 -1 -20 4 -20 5 0 9 9 9 20 0 11 -2 20 -4 20 -2 0
-6 -9 -9 -20z"/>
<path d="M6950 2603 c0 -5 10 -19 21 -33 l20 -25 -16 33 c-15 30 -25 41 -25
25z"/>
<path d="M6832 2570 c0 -19 2 -27 5 -17 2 9 2 25 0 35 -3 9 -5 1 -5 -18z"/>
<path d="M4381 2574 c0 -11 3 -14 6 -6 3 7 2 16 -1 19 -3 4 -6 -2 -5 -13z"/>
<path d="M4840 2588 c13 -14 90 -47 90 -39 0 5 -12 14 -27 19 -16 5 -37 13
-48 18 -11 4 -18 5 -15 2z"/>
<path d="M3760 2555 c-14 -8 -20 -14 -14 -15 5 0 19 7 30 15 24 18 16 19 -16
0z"/>
<path d="M4391 2514 c0 -11 3 -14 6 -6 3 7 2 16 -1 19 -3 4 -6 -2 -5 -13z"/>
<path d="M7011 2510 c14 -31 19 -36 19 -24 0 6 -7 19 -16 30 -14 18 -14 18 -3
-6z"/>
<path d="M5851 2504 c0 -11 3 -14 6 -6 3 7 2 16 -1 19 -3 4 -6 -2 -5 -13z"/>
<path d="M4401 2474 c0 -11 3 -14 6 -6 3 7 2 16 -1 19 -3 4 -6 -2 -5 -13z"/>
<path d="M5535 2480 c-13 -5 -14 -9 -5 -9 8 0 24 4 35 9 13 5 14 9 5 9 -8 0
-24 -4 -35 -9z"/>
<path d="M6177 2457 l-17 -32 20 24 c17 20 26 41 18 41 -2 0 -11 -15 -21 -33z"/>
<path d="M3555 2438 c-88 -35 -90 -36 -84 -42 5 -5 165 56 175 67 13 13 -10 6
-91 -25z"/>
<path d="M5455 2450 c-3 -6 1 -7 9 -4 18 7 21 14 7 14 -6 0 -13 -4 -16 -10z"/>
<path d="M6841 2424 c0 -11 3 -14 6 -6 3 7 2 16 -1 19 -3 4 -6 -2 -5 -13z"/>
<path d="M5374 2415 c-10 -8 -14 -15 -8 -15 6 0 17 7 24 15 16 19 9 19 -16 0z"/>
<path d="M6139 2403 c-13 -16 -12 -17 4 -4 16 13 21 21 13 21 -2 0 -10 -8 -17
-17z"/>
<path d="M4825 2381 c5 -34 12 -49 18 -40 2 2 -3 20 -10 39 l-14 35 6 -34z"/>
<path d="M4560 2385 c0 -5 5 -17 10 -25 5 -8 10 -10 10 -5 0 6 -5 17 -10 25
-5 8 -10 11 -10 5z"/>
<path d="M4434 2360 c3 -14 15 -72 27 -130 12 -58 22 -110 22 -117 0 -7 4 -10
8 -7 13 8 37 -36 59 -107 11 -37 29 -78 41 -93 13 -16 19 -35 16 -47 -5 -17
-3 -18 9 -8 12 10 23 4 62 -32 25 -24 14 -10 -25 32 -56 61 -74 88 -87 132 -9
30 -16 59 -16 64 0 5 -18 63 -39 129 -41 122 -85 229 -77 184z"/>
<path d="M4257 2349 c7 -7 15 -10 18 -7 3 3 -2 9 -12 12 -14 6 -15 5 -6 -5z"/>
<path d="M6882 2280 c0 -14 2 -19 5 -12 2 6 2 18 0 25 -3 6 -5 1 -5 -13z"/>
<path d="M4856 2259 c17 -19 49 -70 72 -112 23 -41 46 -78 51 -81 20 -13 -92
170 -122 199 l-31 30 30 -36z"/>
<path d="M6882 2194 c-1 -29 3 -46 16 -55 15 -12 16 -12 5 1 -6 8 -13 33 -16
55 l-4 40 -1 -41z"/>
<path d="M4646 2177 c3 -10 9 -15 12 -12 3 3 0 11 -7 18 -10 9 -11 8 -5 -6z"/>
<path d="M4771 2154 c0 -11 3 -14 6 -6 3 7 2 16 -1 19 -3 4 -6 -2 -5 -13z"/>
<path d="M5818 2163 c7 -3 16 -2 19 1 4 3 -2 6 -13 5 -11 0 -14 -3 -6 -6z"/>
<path d="M5990 2148 c-12 -22 -12 -22 6 -6 10 10 15 20 12 24 -4 3 -12 -5 -18
-18z"/>
<path d="M4749 2113 c-13 -16 -12 -17 4 -4 9 7 17 15 17 17 0 8 -8 3 -21 -13z"/>
<path d="M4720 2051 c4 -22 19 -54 34 -71 14 -17 26 -37 26 -44 0 -7 7 -21 15
-32 10 -12 8 -1 -6 31 -11 28 -29 59 -40 71 -10 11 -19 34 -19 52 0 18 -4 32
-9 32 -4 0 -5 -18 -1 -39z"/>
<path d="M4482 2030 c0 -19 2 -27 5 -17 2 9 2 25 0 35 -3 9 -5 1 -5 -18z"/>
<path d="M4691 2055 c1 -19 18 -51 18 -35 0 8 -4 22 -9 30 -5 8 -9 11 -9 5z"/>
<path d="M4271 2034 c0 -11 3 -14 6 -6 3 7 2 16 -1 19 -3 4 -6 -2 -5 -13z"/>
<path d="M5000 2030 c6 -11 13 -20 16 -20 2 0 0 9 -6 20 -6 11 -13 20 -16 20
-2 0 0 -9 6 -20z"/>
<path d="M4486 1948 c3 -24 10 -47 15 -52 5 -6 9 -19 10 -30 0 -12 3 -15 6 -8
4 10 10 9 27 -5 11 -10 6 -2 -11 18 -26 28 -33 43 -33 77 0 23 -4 42 -10 42
-5 0 -7 -18 -4 -42z"/>
<path d="M4722 1960 c0 -8 4 -26 8 -40 6 -20 8 -21 8 -5 0 11 -3 29 -8 40 -5
12 -8 14 -8 5z"/>
<path d="M4255 1939 c-4 -11 -4 -23 -1 -26 3 -4 6 1 6 10 0 10 7 17 15 17 8 0
15 5 15 10 0 19 -29 10 -35 -11z"/>
<path d="M5060 1940 c6 -11 13 -20 16 -20 2 0 0 9 -6 20 -6 11 -13 20 -16 20
-2 0 0 -9 6 -20z"/>
<path d="M6951 1944 c0 -11 3 -14 6 -6 3 7 2 16 -1 19 -3 4 -6 -2 -5 -13z"/>
<path d="M4342 1905 c0 -16 2 -22 5 -12 2 9 2 23 0 30 -3 6 -5 -1 -5 -18z"/>
<path d="M4241 1884 c0 -11 3 -14 6 -6 3 7 2 16 -1 19 -3 4 -6 -2 -5 -13z"/>
<path d="M5643 1880 c9 -6 17 -18 17 -25 0 -18 -26 -20 -33 -2 -4 7 -6 8 -6 1
-1 -6 5 -17 13 -23 10 -9 16 -8 25 3 18 21 10 50 -14 54 -18 2 -19 2 -2 -8z"/>
<path d="M4231 1844 c0 -11 3 -14 6 -6 3 7 2 16 -1 19 -3 4 -6 -2 -5 -13z"/>
<path d="M4741 1834 c0 -11 3 -14 6 -6 3 7 2 16 -1 19 -3 4 -6 -2 -5 -13z"/>
<path d="M5606 1798 c9 -18 37 -62 63 -98 25 -36 45 -68 43 -72 -1 -5 2 -8 6
-8 4 0 14 16 21 36 7 20 21 44 32 55 10 10 15 20 11 23 -5 3 -19 -13 -32 -35
-14 -21 -29 -39 -35 -39 -10 1 -47 53 -94 133 -28 46 -38 49 -15 5z"/>
<path d="M4221 1804 c0 -11 3 -14 6 -6 3 7 2 16 -1 19 -3 4 -6 -2 -5 -13z"/>
<path d="M5675 1789 c-5 -14 -1 -27 9 -37 15 -15 17 -15 32 0 13 12 14 20 5
37 -15 27 -38 27 -46 0z m38 -25 c-3 -8 -9 -14 -13 -14 -11 0 -21 30 -14 41 9
15 34 -10 27 -27z"/>
<path d="M7226 1793 c-6 -14 -5 -15 5 -6 7 7 10 15 7 18 -3 3 -9 -2 -12 -12z"/>
<path d="M4211 1764 c0 -11 3 -14 6 -6 3 7 2 16 -1 19 -3 4 -6 -2 -5 -13z"/>
<path d="M4201 1730 c-1 -8 -4 -26 -7 -40 -5 -22 -4 -23 6 -7 6 10 9 28 7 40
-2 12 -5 15 -6 7z"/>
<path d="M6154 1689 c-16 -18 -49 -45 -73 -60 -25 -16 -41 -29 -35 -29 15 0
55 29 100 72 37 36 44 39 65 28 23 -11 23 -10 5 4 -26 21 -28 21 -62 -15z"/>
<path d="M7904 1705 c-18 -14 -18 -15 6 -6 14 4 31 6 38 4 6 -3 12 0 12 6 0
16 -33 13 -56 -4z"/>
<path d="M6536 1647 c-45 -47 -119 -147 -113 -153 2 -2 28 31 58 73 30 43 70
88 88 100 19 13 28 23 21 23 -7 0 -31 -19 -54 -43z"/>
<path d="M6250 1650 c12 -16 24 -30 26 -30 3 0 -4 14 -16 30 -12 17 -24 30
-26 30 -3 0 4 -13 16 -30z"/>
<path d="M6740 1676 c0 -2 8 -10 18 -17 15 -13 16 -12 3 4 -13 16 -21 21 -21
13z"/>
<path d="M8145 1654 c11 -11 26 -25 33 -33 10 -13 12 -13 12 2 0 9 -15 24 -32
33 -32 16 -33 16 -13 -2z"/>
<path d="M5665 1640 c10 -11 20 -20 23 -20 3 0 -3 9 -13 20 -10 11 -20 20 -23
20 -3 0 3 -9 13 -20z"/>
<path d="M5768 1644 c-38 -20 -36 -28 2 -9 17 9 30 18 30 20 0 7 -1 6 -32 -11z"/>
<path d="M4193 1560 c0 -47 2 -66 4 -42 2 23 2 61 0 85 -2 23 -4 4 -4 -43z"/>
<path d="M6776 1627 c3 -10 9 -15 12 -12 3 3 0 11 -7 18 -10 9 -11 8 -5 -6z"/>
<path d="M7957 1624 c-13 -13 15 -34 45 -34 32 0 34 16 5 34 -13 8 -20 8 -26
-3 -6 -9 -10 -10 -12 -2 -3 7 -8 9 -12 5z"/>
<path d="M5842 1595 c0 -16 2 -22 5 -12 2 9 2 23 0 30 -3 6 -5 -1 -5 -18z"/>
<path d="M6286 1597 c3 -10 9 -15 12 -12 3 3 0 11 -7 18 -10 9 -11 8 -5 -6z"/>
<path d="M6553 1509 c-38 -86 -101 -304 -91 -314 2 -3 15 37 28 88 26 101 59
197 91 259 11 22 19 44 16 51 -2 6 -22 -32 -44 -84z"/>
<path d="M5862 1555 c0 -16 2 -22 5 -12 2 9 2 23 0 30 -3 6 -5 -1 -5 -18z"/>
<path d="M4120 1535 c-12 -19 -33 -44 -47 -55 -14 -11 -21 -20 -16 -20 5 0 21
12 35 28 29 30 63 82 55 82 -3 0 -15 -16 -27 -35z"/>
<path d="M6317 1540 c9 -16 21 -30 25 -30 5 0 -1 14 -14 30 -12 17 -23 30 -25
30 -2 0 4 -13 14 -30z"/>
<path d="M3890 1520 c0 -5 5 -10 11 -10 5 0 7 5 4 10 -3 6 -8 10 -11 10 -2 0
-4 -4 -4 -10z"/>
<path d="M5852 1490 c0 -14 2 -19 5 -12 2 6 2 18 0 25 -3 6 -5 1 -5 -13z"/>
<path d="M6368 1488 c6 -6 18 -8 28 -6 14 3 12 5 -9 10 -19 3 -25 2 -19 -4z"/>
<path d="M4020 1440 c0 -11 2 -20 4 -20 2 0 6 9 9 20 3 11 1 20 -4 20 -5 0 -9
-9 -9 -20z"/>
<path d="M5842 1440 c0 -14 2 -19 5 -12 2 6 2 18 0 25 -3 6 -5 1 -5 -13z"/>
<path d="M6922 1400 c0 -19 2 -27 5 -17 2 9 2 25 0 35 -3 9 -5 1 -5 -18z"/>
<path d="M5831 1364 c0 -11 3 -14 6 -6 3 7 2 16 -1 19 -3 4 -6 -2 -5 -13z"/>
<path d="M984 1335 c-3 -6 -3 -107 -2 -225 l3 -215 829 0 829 0 1 224 0 223
-828 2 c-558 1 -830 -2 -832 -9z m1446 -110 c-7 -8 -19 -15 -26 -15 -8 0 -11
6 -8 15 4 8 15 15 26 15 17 0 18 -3 8 -15z m-1169 -86 c39 -80 43 -99 24 -99
-8 0 -18 7 -21 15 -4 10 -20 15 -44 15 -24 0 -40 -5 -44 -15 -6 -16 -36 -21
-36 -6 0 9 48 114 64 139 13 22 30 8 57 -49z m157 45 c41 -28 15 -49 -28 -22
-15 10 -22 10 -31 1 -9 -9 -5 -15 17 -24 52 -20 59 -26 62 -47 4 -23 -31 -52
-64 -52 -29 0 -69 33 -60 49 6 9 14 8 33 -4 13 -9 31 -14 39 -11 25 9 15 24
-21 30 -41 8 -61 36 -45 65 17 34 62 40 98 15z m150 0 c41 -28 15 -49 -28 -22
-15 10 -22 10 -31 1 -9 -9 -5 -15 17 -24 52 -20 59 -26 62 -47 4 -23 -31 -52
-64 -52 -29 0 -69 33 -60 49 6 9 14 8 33 -4 13 -9 31 -14 39 -11 25 10 15 24
-21 30 -25 5 -39 15 -48 33 -10 22 -8 28 12 44 28 23 59 24 89 3z m118 5 c3
-6 1 -16 -5 -22 -15 -15 -14 -84 1 -89 26 -9 -2 -38 -36 -38 -40 0 -56 18 -33
35 10 7 17 26 17 45 0 19 -7 38 -17 45 -9 7 -13 17 -9 23 9 15 73 16 82 1z
m125 1 c10 -6 19 -17 19 -25 0 -17 -26 -20 -35 -5 -9 15 -45 12 -45 -3 0 -8
17 -19 39 -25 47 -15 59 -44 29 -74 -16 -16 -28 -19 -57 -14 -39 6 -68 33 -51
50 6 6 16 3 29 -8 20 -18 52 -19 52 -1 -1 6 -13 14 -28 19 -55 17 -67 44 -36
78 18 20 54 23 84 8z m174 -10 c0 -8 -9 -15 -20 -15 -17 0 -21 -8 -25 -60 -4
-44 -9 -60 -20 -60 -11 0 -16 14 -18 58 -3 53 -5 57 -27 57 -19 0 -25 5 -25
20 0 19 5 21 68 18 52 -2 67 -6 67 -18z m114 -48 c17 -38 31 -74 31 -80 0 -17
-30 -15 -36 3 -8 20 -63 19 -86 -2 -35 -31 -36 1 -2 75 18 39 40 72 47 72 8 0
28 -31 46 -68z m219 6 c2 -47 -1 -61 -18 -78 -26 -26 -64 -26 -91 1 -28 28 -9
51 20 25 30 -28 51 -14 51 34 0 38 -2 40 -29 40 -17 0 -33 5 -36 10 -12 20 8
31 53 28 l47 -3 3 -57z m136 -10 c34 -74 33 -106 -2 -75 -23 21 -78 22 -86 2
-3 -8 -13 -15 -22 -15 -12 0 -15 6 -10 23 12 50 58 137 72 137 8 0 29 -31 48
-72z"/>
<path d="M1206 1125 c-4 -10 1 -15 14 -15 13 0 18 5 14 15 -4 8 -10 15 -14 15
-4 0 -10 -7 -14 -15z"/>
<path d="M2046 1135 c-9 -25 -7 -32 9 -32 17 0 19 15 6 35 -7 11 -10 10 -15
-3z"/>
<path d="M2396 1135 c-9 -25 -7 -32 9 -32 17 0 19 15 6 35 -7 11 -10 10 -15
-3z"/>
<path d="M4601 1284 c0 -11 3 -14 6 -6 3 7 2 16 -1 19 -3 4 -6 -2 -5 -13z"/>
<path d="M6451 1164 c-1 -12 6 -28 16 -35 15 -13 15 -12 6 6 -6 11 -13 27 -16
35 -4 10 -6 8 -6 -6z"/>
<path d="M3835 1140 c-4 -19 -8 -48 -7 -65 2 -21 -1 -26 -7 -16 -7 11 -13 0
-25 -39 -22 -74 -18 -87 5 -20 14 39 18 45 14 20 -35 -212 -62 -471 -51 -489
4 -5 -10 -19 -29 -31 -20 -12 -34 -25 -31 -27 3 -3 18 4 35 16 l30 21 4 -27
c2 -16 5 26 6 92 2 131 19 278 52 445 11 60 19 119 17 131 -3 21 -5 19 -13
-11z"/>
<path d="M4192 1030 c0 -14 2 -19 5 -12 2 6 2 18 0 25 -3 6 -5 1 -5 -13z"/>
<path d="M6511 1040 c0 -8 6 -28 14 -45 17 -39 18 -21 0 25 -7 19 -14 28 -14
20z"/>
<path d="M6566 1017 c3 -10 9 -15 12 -12 3 3 0 11 -7 18 -10 9 -11 8 -5 -6z"/>
<path d="M3845 868 c-4 -57 -5 -119 -3 -138 2 -19 7 25 11 98 5 74 6 136 4
139 -3 2 -8 -42 -12 -99z"/>
<path d="M3766 914 c-4 -14 -5 -28 -3 -31 3 -2 8 8 11 23 4 14 5 28 3 31 -3 2
-8 -8 -11 -23z"/>
<path d="M3751 854 c0 -11 3 -14 6 -6 3 7 2 16 -1 19 -3 4 -6 -2 -5 -13z"/>
<path d="M4181 744 c0 -11 3 -14 6 -6 3 7 2 16 -1 19 -3 4 -6 -2 -5 -13z"/>
<path d="M4433 660 c0 -25 2 -35 4 -22 2 12 2 32 0 45 -2 12 -4 2 -4 -23z"/>
<path d="M4181 634 c0 -11 3 -14 6 -6 3 7 2 16 -1 19 -3 4 -6 -2 -5 -13z"/>
<path d="M6382 630 c0 -14 2 -19 5 -12 2 6 2 18 0 25 -3 6 -5 1 -5 -13z"/>
<path d="M4712 595 c0 -16 2 -22 5 -12 2 9 2 23 0 30 -3 6 -5 -1 -5 -18z"/>
<path d="M3833 575 c0 -22 2 -30 4 -17 2 12 2 30 0 40 -3 9 -5 -1 -4 -23z"/>
<path d="M4727 480 c3 -47 7 -87 9 -89 7 -8 3 83 -6 129 -6 33 -7 22 -3 -40z"/>
<path d="M5009 453 c-13 -16 -12 -17 4 -4 16 13 21 21 13 21 -2 0 -10 -8 -17
-17z"/>
<path d="M3834 431 c7 -11 46 -35 46 -28 0 3 -12 12 -26 22 -15 9 -23 12 -20
6z"/>
<path d="M7132 410 c0 -19 2 -27 5 -17 2 9 2 25 0 35 -3 9 -5 1 -5 -18z"/>
<path d="M3904 386 c11 -9 24 -16 30 -16 12 0 7 5 -24 19 -24 11 -24 11 -6 -3z"/>
<path d="M4745 359 c-4 -6 -5 -12 -2 -15 2 -3 7 2 10 11 7 17 1 20 -8 4z"/>
<path d="M6665 314 c6 -5 26 -23 45 -39 l35 -30 -25 28 c-14 16 -34 33 -45 39
-11 6 -15 6 -10 2z"/>
<path d="M6342 280 c0 -19 2 -27 5 -17 2 9 2 25 0 35 -3 9 -5 1 -5 -18z"/>
<path d="M1172 183 c1 -54 3 -77 5 -52 4 46 5 47 31 40 23 -7 27 -13 27 -44
l0 -37 55 2 55 2 -47 3 c-46 4 -48 5 -48 35 0 22 4 29 14 25 8 -3 30 -9 50
-12 20 -4 37 -14 39 -24 3 -9 5 23 6 72 l1 87 -95 0 -95 0 2 -97z m68 41 c0
-44 -1 -45 -27 -42 -25 3 -28 7 -31 46 -3 41 -2 42 27 42 30 0 31 -1 31 -46z
m74 -6 c-32 -64 -28 -60 -48 -52 -12 4 -16 19 -16 55 l0 49 45 0 45 0 -26 -52z
m36 -18 c0 -43 -3 -50 -19 -50 -31 0 -34 17 -10 60 13 22 24 40 26 40 2 0 3
-22 3 -50z"/>
<path d="M6750 236 c0 -2 8 -10 18 -17 15 -13 16 -12 3 4 -13 16 -21 21 -21
13z"/>
<path d="M1465 201 c-8 -26 -22 -27 -28 -3 -3 9 -5 1 -5 -18 0 -19 2 -29 5
-23 3 9 10 10 24 3 13 -7 19 -7 19 0 0 5 -5 10 -10 10 -7 0 -7 7 0 21 7 11 9
23 7 26 -3 2 -8 -5 -12 -16z"/>
<path d="M1502 208 c-28 -28 -3 -66 33 -52 18 7 20 35 3 52 -15 15 -21 15 -36
0z m35 -14 c8 -21 -13 -42 -28 -27 -13 13 -5 43 11 43 6 0 13 -7 17 -16z"/>
<path d="M1564 206 c-17 -44 25 -75 47 -35 10 19 9 25 -7 36 -23 17 -33 16
-40 -1z m39 -32 c-8 -20 -33 -17 -33 4 0 10 3 22 7 25 10 11 32 -13 26 -29z"/>
<path d="M1640 217 c0 -1 -4 -17 -9 -35 -6 -20 -6 -30 0 -27 5 4 9 15 9 26 0
10 5 19 10 19 6 0 10 -9 10 -19 0 -11 5 -23 10 -26 10 -6 4 37 -7 58 -4 6 -23
10 -23 4z"/>
<path d="M1692 185 c0 -27 2 -32 5 -16 l5 25 19 -25 19 -24 -1 35 c-1 20 -3
27 -6 16 -5 -18 -6 -18 -24 5 l-19 24 2 -40z"/>
<path d="M1764 208 c-4 -6 0 -16 9 -23 22 -16 22 -29 0 -20 -14 5 -15 3 -6 -6
6 -6 16 -8 22 -5 16 10 13 36 -4 36 -8 0 -15 5 -15 11 0 6 7 8 16 5 8 -3 12
-2 9 4 -8 13 -22 13 -31 -2z"/>
<path d="M1890 196 c-6 -16 -9 -34 -6 -40 2 -6 7 4 11 22 5 23 10 29 16 21 4
-7 6 -16 3 -20 -2 -4 0 -10 6 -14 15 -9 12 18 -4 41 -14 18 -15 18 -26 -10z"/>
<path d="M2131 204 c0 -11 3 -14 6 -6 3 7 2 16 -1 19 -3 4 -6 -2 -5 -13z"/>
<path d="M2171 204 c0 -11 3 -14 6 -6 3 7 2 16 -1 19 -3 4 -6 -2 -5 -13z"/>
<path d="M2221 190 c-1 -26 2 -31 9 -20 8 12 12 13 19 2 5 -9 8 -4 7 16 -1 22
-4 28 -13 21 -7 -7 -13 -5 -16 3 -3 7 -6 -3 -6 -22z"/>
<path d="M2306 211 c-4 -5 3 -7 14 -4 23 6 26 13 6 13 -8 0 -17 -4 -20 -9z"/>
<path d="M2362 190 c0 -19 2 -27 5 -17 2 9 2 25 0 35 -3 9 -5 1 -5 -18z"/>
<path d="M2410 188 c0 -18 4 -28 8 -22 4 6 14 14 22 17 12 4 11 6 -2 6 -10 1
-18 5 -18 10 0 5 8 12 18 14 13 4 11 5 -5 6 -19 1 -23 -4 -23 -31z"/>
<path d="M1822 185 c0 -16 2 -24 5 -17 2 6 11 12 18 12 7 0 16 -6 18 -12 3 -7
5 1 5 17 0 17 -2 24 -5 18 -2 -7 -11 -13 -18 -13 -7 0 -16 6 -18 13 -3 6 -5
-1 -5 -18z"/>
<path d="M2333 175 c0 -8 4 -12 9 -9 5 3 6 10 3 15 -9 13 -12 11 -12 -6z"/>
<path d="M6181 154 c0 -11 3 -14 6 -6 3 7 2 16 -1 19 -3 4 -6 -2 -5 -13z"/>
<path d="M6316 114 c-4 -14 -5 -28 -3 -31 3 -2 8 8 11 23 4 14 5 28 3 31 -3 2
-8 -8 -11 -23z"/>
<path d="M1198 93 c7 -3 16 -2 19 1 4 3 -2 6 -13 5 -11 0 -14 -3 -6 -6z"/>
<path d="M6339 73 c-13 -16 -12 -17 4 -4 9 7 17 15 17 17 0 8 -8 3 -21 -13z"/>
<path d="M6286 13 c-6 -14 -5 -15 5 -6 7 7 10 15 7 18 -3 3 -9 -2 -12 -12z"/>
</g>
</svg>
