<svg class="share-icon" xmlns="http://www.w3.org/2000/svg" viewBox="0 0 24 24" data-t="share-svg" aria-labelledby="share-svg" aria-hidden="true" role="img"><title id="share-svg">Share</title><path d="M18 2c2.21 0 4 1.79 4 4s-1.79 4-4 4c-1.385 0-2.606-.704-3.323-1.773l-5.02 2.151c.22.496.343 1.045.343 1.622 0 .577-.122 1.126-.342 1.622l5.019 2.151C15.394 14.703 16.615 14 18 14c2.21 0 4 1.79 4 4s-1.79 4-4 4-4-1.79-4-4c0-.113.005-.225.014-.335L8.35 15.238C7.69 15.718 6.878 16 6 16c-2.21 0-4-1.79-4-4s1.79-4 4-4c.878 0 1.69.283 2.35.762l5.664-2.427C14.004 6.225 14 6.113 14 6c0-2.21 1.79-4 4-4zm0 14c-1.105 0-2 .895-2 2s.895 2 2 2 2-.895 2-2-.895-2-2-2zM6 10c-1.105 0-2 .895-2 2s.895 2 2 2 2-.895 2-2-.895-2-2-2zm12-6c-1.105 0-2 .895-2 2s.895 2 2 2 2-.895 2-2-.895-2-2-2z" transform="translate(-60 -1504) translate(60 1504)"></path></svg>