<svg class="" xmlns="http://www.w3.org/2000/svg" viewBox="0 0 64 64" data-t="rating-a12-svg" aria-labelledby="rating-a12-svg" aria-hidden="true" role="img"><title id="rating-a12-svg">Não recomendado para menores de 12 anos</title><path d="m62.37 4.31-.019-.035c-.363-1.252-1.451-2.322-2.74-2.685h-.035c-.345-.109-.762-.127-1.143-.127H5.604c-.326 0-.708.018-1.016.09h-.036c-1.67.345-3.012 1.96-3.084 3.647v22.186c0 10.195.018 20.734 0 31.11v.073c-.055.962.344 1.941 1.07 2.721.726.78 1.687 1.234 2.649 1.252h53.246c.29 0 .67-.018 1.016-.09 1.778-.418 3.174-2.177 3.084-3.919V6.977c-.018-.254 0-.507 0-.743.018-.69.036-1.36-.146-1.887l-.018-.036z" fill="#FBC115"></path><path d="M5.61 0c.327 0 .635.018.98.036h50.906l.943-.018c.544 0 1.07.036 1.597.2 1.76.49 3.247 1.923 3.737 3.682.326.98.2 2.05.217 3.084v51.501c.11 2.485-1.814 4.826-4.208 5.388-.436.109-.89.127-1.343.127-.381 0-.78-.018-1.161-.018H5.175c-2.83-.055-5.297-2.667-5.17-5.497.018-17.76 0-35.537 0-53.315C.077 2.794 1.909.617 4.232.127 4.685.018 5.157 0 5.61 0zM58.44 1.451H5.611c-.327 0-.708.018-1.016.09h-.037c-1.669.346-3.011 1.96-3.084 3.647v26.024c.004 8.99.016 18.194 0 27.273v.073c-.054.961.345 1.94 1.07 2.72.726.781 1.688 1.234 2.65 1.253h53.245c.29 0 .671-.019 1.016-.091 1.778-.417 3.175-2.177 3.084-3.919V6.966c-.018-.254 0-.508 0-.744.018-.69.036-1.36-.145-1.886l-.018-.037-.018-.036c-.363-1.252-1.452-2.322-2.74-2.685h-.036c-.345-.109-.762-.127-1.143-.127z" fill="#FFF"></path><path d="M58.024 24.287v.471c0 1.488-.218 2.885-.653 4.173-.435 1.287-1.18 2.666-2.213 4.154l-7.275 10.322h10.685v4.898H41.28V42.3l7.53-10.975c.87-1.252 1.541-2.43 1.995-3.555.453-1.125.69-2.123.69-2.994V23.47c0-1.614-.11-2.685-.346-3.193-.235-.526-.653-.78-1.27-.78-.58 0-.98.273-1.215.817-.236.544-.345 1.596-.345 3.156v1.306h-6.53v-.49c0-3.301.598-5.587 1.777-6.839 1.198-1.27 3.32-1.904 6.368-1.904 3.048 0 5.152.617 6.331 1.868 1.161 1.27 1.76 3.556 1.76 6.876M31.41 16.069h5.46v32.236h-6.24V24.34a10.244 10.244 0 0 1-1.76 1.451c-.635.4-1.324.744-2.086 1.016v-5.787c1.107-.635 2.068-1.36 2.83-2.195.798-.834 1.397-1.741 1.796-2.757M16.462 15.56h-6.459L5.486 48.306h9.034l.508-5.987h2.867l.508 5.987h9.034L22.902 15.56h-6.44zm0 7.547 1.523 13.46H14.938l1.524-13.46z" fill="#FFF"></path></svg>